<svg width="33" height="30" viewBox="0 0 33 30" fill="none" xmlns="http://www.w3.org/2000/svg">
<path d="M16.0351 4.2626V29.9668C15.7625 29.9668 15.4738 29.9187 15.2493 29.7904L15.1852 29.7583C12.1065 28.0747 6.73472 26.3108 3.25512 25.8458L2.7901 25.7816C1.25073 25.5892 0 24.1461 0 22.6067V3.23635C0 1.32818 1.5554 -0.114975 3.46357 0.0453757C6.83093 0.317972 11.9301 2.01769 14.7843 3.79758L15.1852 4.03811C15.4257 4.18242 15.7304 4.2626 16.0351 4.2626Z" fill="#6EEE91"/>
<path d="M32.0701 3.2524V22.6067C32.0701 24.1461 30.8194 25.5892 29.28 25.7817L28.7509 25.8458C25.2552 26.3108 19.8674 28.0907 16.7887 29.7904C16.5803 29.9187 16.3237 29.9668 16.0351 29.9668V4.26261C16.3397 4.26261 16.6444 4.18244 16.8849 4.03812L17.1575 3.86173C20.0118 2.06581 25.1269 0.350056 28.4943 0.0614253H28.5905C30.4987 -0.0989253 32.0701 1.3282 32.0701 3.2524Z" fill="#46C669"/>
<path d="M9.22016 10.5804H5.61227C4.95483 10.5804 4.40964 10.0352 4.40964 9.37774C4.40964 8.7203 4.95483 8.17511 5.61227 8.17511H9.22016C9.87759 8.17511 10.4228 8.7203 10.4228 9.37774C10.4228 10.0352 9.87759 10.5804 9.22016 10.5804Z" fill="#46C669"/>
<path d="M10.4228 15.3909H5.61227C4.95483 15.3909 4.40964 14.8457 4.40964 14.1883C4.40964 13.5308 4.95483 12.9857 5.61227 12.9857H10.4228C11.0802 12.9857 11.6254 13.5308 11.6254 14.1883C11.6254 14.8457 11.0802 15.3909 10.4228 15.3909Z" fill="#46C669"/>
</svg>
